<svg xmlns="http://www.w3.org/2000/svg" xmlns:xlink="http://www.w3.org/1999/xlink" viewBox="0 0 1578.4 298.2"><defs><style>.cls-1{fill:none;}.cls-2{clip-path:url(#clip-path);}.cls-3{fill:#353535;}.cls-4{fill:#fff;}.cls-5{fill:gold;}</style><clipPath id="clip-path"><path class="cls-1" d="M378.8,266.9c22.3,0,40.3-17.7,40.3-39.5V160.1c0-21.9-18-39.6-40.3-39.6H15.6V267a.1.1,0,0,1,.1-.1Z"/></clipPath></defs><title>Fichier 134</title><g id="Calque_2" data-name="Calque 2"><g id="Calque_1-2" data-name="Calque 1"><path d="M14.6,297.7a14.1,14.1,0,0,1,0-28.2H380.9A41.2,41.2,0,0,0,422,228.3V159.1A41.2,41.2,0,0,0,380.9,118H14.6a14.2,14.2,0,0,1,0-28.3h368a70.8,70.8,0,0,1,70.7,70.8V227a70.8,70.8,0,0,1-70.7,70.7Z"/><path d="M382.6,90.2a70.3,70.3,0,0,1,70.2,70.3V227a70.3,70.3,0,0,1-70.2,70.2H14.6a13.6,13.6,0,0,1,0-27.2H380.9a41.7,41.7,0,0,0,41.6-41.7V159.1a41.7,41.7,0,0,0-41.6-41.6H14.6a13.7,13.7,0,0,1,0-27.3h368m0-1H14.6a14.7,14.7,0,0,0,0,29.3H380.9a40.6,40.6,0,0,1,40.6,40.6v69.2A40.7,40.7,0,0,1,380.9,269H14.6A14.6,14.6,0,0,0,0,283.6H0a14.6,14.6,0,0,0,14.6,14.6h368A71.2,71.2,0,0,0,453.8,227V160.5a71.3,71.3,0,0,0-71.2-71.3Z"/><g class="cls-2"><path class="cls-3" d="M20.7,121.3H434.4a0,0,0,0,1,0,0v3.3a0,0,0,0,1,0,0H20.7a1.6,1.6,0,0,1-1.6-1.6v0a1.6,1.6,0,0,1,1.6-1.6Z"/><path class="cls-3" d="M29.3,127.4h405a0,0,0,0,1,0,0v3.3a0,0,0,0,1,0,0H29.3a1.6,1.6,0,0,1-1.6-1.6v0a1.6,1.6,0,0,1,1.6-1.6Z"/><path class="cls-3" d="M35.9,133.6H434.4a0,0,0,0,1,0,0v3.3a0,0,0,0,1,0,0H35.9a1.6,1.6,0,0,1-1.6-1.6v0a1.6,1.6,0,0,1,1.6-1.6Z"/><path class="cls-3" d="M41.4,139.8h393a0,0,0,0,1,0,0V143a0,0,0,0,1,0,0H41.4a1.6,1.6,0,0,1-1.6-1.6v0a1.6,1.6,0,0,1,1.6-1.6Z"/><path class="cls-3" d="M45.9,145.9H434.4a0,0,0,0,1,0,0v3.3a0,0,0,0,1,0,0H45.9a1.6,1.6,0,0,1-1.6-1.6v0a1.6,1.6,0,0,1,1.6-1.6Z"/><path class="cls-3" d="M49.3,152.1h385a0,0,0,0,1,0,0v3.3a0,0,0,0,1,0,0H49.3a1.6,1.6,0,0,1-1.6-1.6v0a1.6,1.6,0,0,1,1.6-1.6Z"/><path class="cls-3" d="M52.1,158.2H434.4a0,0,0,0,1,0,0v3.3a0,0,0,0,1,0,0H52.1a1.6,1.6,0,0,1-1.6-1.6v0a1.6,1.6,0,0,1,1.6-1.6Z"/><path class="cls-3" d="M54.5,164.4H434.4a0,0,0,0,1,0,0v3.3a0,0,0,0,1,0,0H54.5a1.6,1.6,0,0,1-1.6-1.6v0A1.6,1.6,0,0,1,54.5,164.4Z"/><path class="cls-3" d="M56.5,170.5H434.4a0,0,0,0,1,0,0v3.3a0,0,0,0,1,0,0H56.5a1.6,1.6,0,0,1-1.6-1.6v0A1.6,1.6,0,0,1,56.5,170.5Z"/><path class="cls-3" d="M57.6,176.7H434.4a0,0,0,0,1,0,0V180a0,0,0,0,1,0,0H57.6a1.6,1.6,0,0,1-1.6-1.6v0a1.6,1.6,0,0,1,1.6-1.6Z"/><path class="cls-3" d="M58.3,182.9H434.4a0,0,0,0,1,0,0v3.3a0,0,0,0,1,0,0H58.3a1.6,1.6,0,0,1-1.6-1.6v0a1.6,1.6,0,0,1,1.6-1.6Z"/><path class="cls-3" d="M58.6,189H434.4a0,0,0,0,1,0,0v3.3a0,0,0,0,1,0,0H58.6a1.6,1.6,0,0,1-1.6-1.6v0a1.6,1.6,0,0,1,1.6-1.6Z"/><path class="cls-3" d="M58.6,195.2H434.4a0,0,0,0,1,0,0v3.3a0,0,0,0,1,0,0H58.6a1.6,1.6,0,0,1-1.6-1.6v0a1.6,1.6,0,0,1,1.6-1.6Z"/><path class="cls-3" d="M58.6,201.3H434.4a0,0,0,0,1,0,0v3.3a0,0,0,0,1,0,0H58.6A1.6,1.6,0,0,1,57,203v0a1.6,1.6,0,0,1,1.6-1.6Z"/><path class="cls-3" d="M57.9,207.5H434.4a0,0,0,0,1,0,0v3.3a0,0,0,0,1,0,0H57.9a1.6,1.6,0,0,1-1.6-1.6v0A1.6,1.6,0,0,1,57.9,207.5Z"/><path class="cls-3" d="M56.5,213.7H434.4a0,0,0,0,1,0,0v3.3a0,0,0,0,1,0,0H56.5a1.6,1.6,0,0,1-1.6-1.6v0A1.6,1.6,0,0,1,56.5,213.7Z"/><path class="cls-3" d="M54.5,219.8H434.7a0,0,0,0,1,0,0v3.3a0,0,0,0,1,0,0H54.5a1.6,1.6,0,0,1-1.6-1.6v0a1.6,1.6,0,0,1,1.6-1.6Z"/><path class="cls-3" d="M52.4,226H434.4a0,0,0,0,1,0,0v3.3a0,0,0,0,1,0,0H52.4a1.6,1.6,0,0,1-1.6-1.6v0a1.6,1.6,0,0,1,1.6-1.6Z"/><path class="cls-3" d="M49.3,232.1h385a0,0,0,0,1,0,0v3.3a0,0,0,0,1,0,0H49.3a1.6,1.6,0,0,1-1.6-1.6v0a1.6,1.6,0,0,1,1.6-1.6Z"/><path class="cls-3" d="M45.9,238.3H434.4a0,0,0,0,1,0,0v3.3a0,0,0,0,1,0,0H45.9a1.6,1.6,0,0,1-1.6-1.6v0a1.6,1.6,0,0,1,1.6-1.6Z"/><path class="cls-3" d="M41.1,244.4H434.4a0,0,0,0,1,0,0v3.3a0,0,0,0,1,0,0H41.1a1.6,1.6,0,0,1-1.6-1.6v0a1.6,1.6,0,0,1,1.6-1.6Z"/><path class="cls-3" d="M35.9,250.6H434.4a0,0,0,0,1,0,0v3.3a0,0,0,0,1,0,0H35.9a1.6,1.6,0,0,1-1.6-1.6v0A1.6,1.6,0,0,1,35.9,250.6Z"/><path class="cls-3" d="M29,256.8H434.4a0,0,0,0,1,0,0V260a0,0,0,0,1,0,0H29a1.6,1.6,0,0,1-1.6-1.6v0a1.6,1.6,0,0,1,1.6-1.6Z"/><path class="cls-3" d="M20.7,262.9H434.4a0,0,0,0,1,0,0v3.3a0,0,0,0,1,0,0H20.7a1.6,1.6,0,0,1-1.6-1.6v0a1.6,1.6,0,0,1,1.6-1.6Z"/></g><path class="cls-4" d="M167,255.1a13.1,13.1,0,0,1-7.4-2.2,13.3,13.3,0,0,1-5.9-11V145.6a13.3,13.3,0,0,1,18.1-12.4l119.9,47.1a13.3,13.3,0,0,1,.2,24.6L172,254.1A12.4,12.4,0,0,1,167,255.1Zm0-113.8a4,4,0,0,0-2.4.7,4.2,4.2,0,0,0-1.9,3.6v96.3a4.2,4.2,0,0,0,1.9,3.5,4.1,4.1,0,0,0,4,.5l119.9-49.3a4.1,4.1,0,0,0,2.6-4,4,4,0,0,0-2.7-3.9L168.5,141.6Z"/><path class="cls-5" d="M170.2,137.4,290,184.5a8.7,8.7,0,0,1,.2,16.2L170.3,250a8.8,8.8,0,0,1-12.1-8.1V145.6A8.8,8.8,0,0,1,170.2,137.4Z"/><path class="cls-5" d="M525.7,244.6l-14.9,53.6h-49l63.9-209h62l64.8,209H601.6l-16.1-53.6Zm53-35.4-13-44.3c-3.8-12.4-7.5-27.9-10.6-40.3h-.6c-3.1,12.4-6.2,28.2-9.6,40.3l-12.4,44.3Z"/><path d="M680.4,89.2h47.4V258.5h83.1v39.7H680.4Z"/><path d="M963.2,209.9H886.3v49.6h85.9v38.7H838.8V89.2h129V128H886.3v43.4h76.9Z"/><path class="cls-5" d="M1181.1,218.2c-.9-25.1-1.8-55.5-1.8-85.9h-1c-6.5,26.7-15.1,56.5-23.2,81l-25.4,81.5h-36.9l-22.4-80.9c-6.8-24.5-13.9-54.3-18.9-81.6h-.6c-1.2,28.2-2.2,60.5-3.7,86.5l-3.7,79.4H999.7l13.4-209H1076l20.5,69.8c6.5,24.2,13,50.2,17.7,74.7h.9c5.9-24.2,13-51.8,19.8-75l22.4-69.5H1219l11.4,209h-46.2Z"/><path d="M1266.7,298.2V89.2h55.2l43.4,76.6a603.3,603.3,0,0,1,34.1,71.7h.9c-3.1-27.6-4-55.9-4-87.2V89.2h43.4v209h-49.6l-44.6-80.6c-12.4-22.3-26.1-49.3-36.3-73.8l-.9.3c1.2,27.6,1.8,57.1,1.8,91.2v62.9Z"/><path d="M1528.1,89.2v209h-47.5V89.2Z"/><path class="cls-5" d="M1523.2,4.6a30.3,30.3,0,1,0,6.8,45.6l40.3,25.1a5.3,5.3,0,0,0,7.3-1.8h0a5.2,5.2,0,0,0-1.7-7.3l-40.4-25.1A30.4,30.4,0,0,0,1523.2,4.6Zm.7,36.1a19.7,19.7,0,1,1-6.3-27.2A19.7,19.7,0,0,1,1523.9,40.7Z"/></g></g></svg>