<svg id="Calque_1" data-name="Calque 1" xmlns="http://www.w3.org/2000/svg" xmlns:xlink="http://www.w3.org/1999/xlink" viewBox="0 0 1578.4 298.2"><defs><style>.cls-1{fill:none;}.cls-2{fill:#fff;}.cls-3{clip-path:url(#clip-path);}.cls-4{fill:#dbdbdb;}.cls-5{fill:#e5e5e5;}</style><clipPath id="clip-path" transform="translate(-122.5 -416.8)"><path class="cls-1" d="M501.3,683.7c22.2,0,40.3-17.7,40.3-39.5V576.8c0-21.8-18.1-39.5-40.3-39.5H138V683.7H501.3Z"/></clipPath></defs><title>logo-white</title><path class="cls-2" d="M505,506H137.1a14.6,14.6,0,0,0-14.6,14.6h0a14.6,14.6,0,0,0,14.6,14.7H503.3A40.7,40.7,0,0,1,544,575.9v69.2a40.7,40.7,0,0,1-40.7,40.6H137.1a14.6,14.6,0,0,0-14.6,14.7h0A14.6,14.6,0,0,0,137.1,715H505a71.3,71.3,0,0,0,71.3-71.2V577.2A71.3,71.3,0,0,0,505,506Z" transform="translate(-122.5 -416.8)"/><g class="cls-3"><path class="cls-4" d="M20.7,121.3H434.4a0,0,0,0,1,0,0v3.3a0,0,0,0,1,0,0H20.7a1.6,1.6,0,0,1-1.6-1.6v0a1.6,1.6,0,0,1,1.6-1.6Z"/><path class="cls-4" d="M29.3,127.4h405a0,0,0,0,1,0,0v3.3a0,0,0,0,1,0,0H29.3a1.6,1.6,0,0,1-1.6-1.6v0a1.6,1.6,0,0,1,1.6-1.6Z"/><path class="cls-4" d="M35.9,133.6H434.4a0,0,0,0,1,0,0v3.3a0,0,0,0,1,0,0H35.9a1.6,1.6,0,0,1-1.6-1.6v0a1.6,1.6,0,0,1,1.6-1.6Z"/><path class="cls-4" d="M41.4,139.8h393a0,0,0,0,1,0,0V143a0,0,0,0,1,0,0H41.4a1.6,1.6,0,0,1-1.6-1.6v0a1.6,1.6,0,0,1,1.6-1.6Z"/><path class="cls-4" d="M45.9,145.9H434.4a0,0,0,0,1,0,0v3.3a0,0,0,0,1,0,0H45.9a1.6,1.6,0,0,1-1.6-1.6v0a1.6,1.6,0,0,1,1.6-1.6Z"/><path class="cls-4" d="M49.3,152.1h385a0,0,0,0,1,0,0v3.3a0,0,0,0,1,0,0H49.3a1.6,1.6,0,0,1-1.6-1.6v0a1.6,1.6,0,0,1,1.6-1.6Z"/><path class="cls-4" d="M52.1,158.2H434.4a0,0,0,0,1,0,0v3.3a0,0,0,0,1,0,0H52.1a1.6,1.6,0,0,1-1.6-1.6v0A1.6,1.6,0,0,1,52.1,158.2Z"/><path class="cls-4" d="M54.5,164.4H434.4a0,0,0,0,1,0,0v3.3a0,0,0,0,1,0,0H54.5a1.6,1.6,0,0,1-1.6-1.6v0a1.6,1.6,0,0,1,1.6-1.6Z"/><path class="cls-4" d="M56.5,170.5H434.4a0,0,0,0,1,0,0v3.3a0,0,0,0,1,0,0H56.5a1.6,1.6,0,0,1-1.6-1.6v0A1.6,1.6,0,0,1,56.5,170.5Z"/><path class="cls-4" d="M57.6,176.7H434.4a0,0,0,0,1,0,0V180a0,0,0,0,1,0,0H57.6a1.6,1.6,0,0,1-1.6-1.6v0a1.6,1.6,0,0,1,1.6-1.6Z"/><path class="cls-4" d="M58.3,182.9H434.4a0,0,0,0,1,0,0v3.3a0,0,0,0,1,0,0H58.3a1.6,1.6,0,0,1-1.6-1.6v0a1.6,1.6,0,0,1,1.6-1.6Z"/><path class="cls-4" d="M58.6,189H434.4a0,0,0,0,1,0,0v3.3a0,0,0,0,1,0,0H58.6a1.6,1.6,0,0,1-1.6-1.6v0a1.6,1.6,0,0,1,1.6-1.6Z"/><path class="cls-4" d="M58.6,195.2H434.4a0,0,0,0,1,0,0v3.3a0,0,0,0,1,0,0H58.6a1.6,1.6,0,0,1-1.6-1.6v0a1.6,1.6,0,0,1,1.6-1.6Z"/><path class="cls-4" d="M58.6,201.3H434.4a0,0,0,0,1,0,0v3.3a0,0,0,0,1,0,0H58.6A1.6,1.6,0,0,1,57,203v0A1.6,1.6,0,0,1,58.6,201.3Z"/><path class="cls-4" d="M57.9,207.5H434.4a0,0,0,0,1,0,0v3.3a0,0,0,0,1,0,0H57.9a1.6,1.6,0,0,1-1.6-1.6v0a1.6,1.6,0,0,1,1.6-1.6Z"/><path class="cls-4" d="M56.5,213.7H434.4a0,0,0,0,1,0,0v3.3a0,0,0,0,1,0,0H56.5a1.6,1.6,0,0,1-1.6-1.6v0a1.6,1.6,0,0,1,1.6-1.6Z"/><path class="cls-4" d="M54.5,219.8H434.7a0,0,0,0,1,0,0v3.3a0,0,0,0,1,0,0H54.5a1.6,1.6,0,0,1-1.6-1.6v0a1.6,1.6,0,0,1,1.6-1.6Z"/><path class="cls-4" d="M52.4,226H434.4a0,0,0,0,1,0,0v3.3a0,0,0,0,1,0,0H52.4a1.6,1.6,0,0,1-1.6-1.6v0a1.6,1.6,0,0,1,1.6-1.6Z"/><path class="cls-4" d="M49.3,232.1h385a0,0,0,0,1,0,0v3.3a0,0,0,0,1,0,0H49.3a1.6,1.6,0,0,1-1.6-1.6v0a1.6,1.6,0,0,1,1.6-1.6Z"/><path class="cls-4" d="M45.9,238.3H434.4a0,0,0,0,1,0,0v3.3a0,0,0,0,1,0,0H45.9a1.6,1.6,0,0,1-1.6-1.6v0a1.6,1.6,0,0,1,1.6-1.6Z"/><path class="cls-4" d="M41.1,244.4H434.4a0,0,0,0,1,0,0v3.3a0,0,0,0,1,0,0H41.1a1.6,1.6,0,0,1-1.6-1.6v0a1.6,1.6,0,0,1,1.6-1.6Z"/><path class="cls-4" d="M35.9,250.6H434.4a0,0,0,0,1,0,0v3.3a0,0,0,0,1,0,0H35.9a1.6,1.6,0,0,1-1.6-1.6v0a1.6,1.6,0,0,1,1.6-1.6Z"/><path class="cls-4" d="M29,256.8H434.4a0,0,0,0,1,0,0V260a0,0,0,0,1,0,0H29a1.6,1.6,0,0,1-1.6-1.6v0a1.6,1.6,0,0,1,1.6-1.6Z"/><path class="cls-4" d="M20.7,262.9H434.4a0,0,0,0,1,0,0v3.3a0,0,0,0,1,0,0H20.7a1.6,1.6,0,0,1-1.6-1.6v0a1.6,1.6,0,0,1,1.6-1.6Z"/></g><path class="cls-5" d="M289.4,671.9a13.6,13.6,0,0,1-7.3-2.2,13.3,13.3,0,0,1-5.9-11V562.3a13.4,13.4,0,0,1,5.8-10.9,13.1,13.1,0,0,1,12.3-1.4l119.8,47.1a13.3,13.3,0,0,1,.2,24.6L294.5,670.9A13.2,13.2,0,0,1,289.4,671.9Zm0-113.9a4.6,4.6,0,0,0-2.4.8,4.1,4.1,0,0,0-1.8,3.5v96.4a4.1,4.1,0,0,0,1.8,3.5,4.3,4.3,0,0,0,4.1.4l119.8-49.2a4.3,4.3,0,0,0,0-8L291,558.3A4.5,4.5,0,0,0,289.4,558Z" transform="translate(-122.5 -416.8)"/><path class="cls-2" d="M292.6,554.2l119.9,47.1a8.7,8.7,0,0,1,.1,16.2L292.8,666.8a8.8,8.8,0,0,1-12.1-8.1V562.3A8.7,8.7,0,0,1,292.6,554.2Z" transform="translate(-122.5 -416.8)"/><path class="cls-2" d="M648.1,661.4,633.2,715h-49l63.9-209h62l64.8,209H724.1L708,661.4Zm53-35.4-13-44.3c-3.7-12.4-7.4-27.9-10.5-40.4H677c-3.1,12.5-6.2,28.3-9.7,40.4L654.9,626Z" transform="translate(-122.5 -416.8)"/><path class="cls-2" d="M802.8,506h47.5V675.3h83.1V715H802.8Z" transform="translate(-122.5 -416.8)"/><path class="cls-2" d="M1085.6,626.6h-76.9v49.6h85.9V715H961.3V506h129v38.8h-81.6v43.4h76.9Z" transform="translate(-122.5 -416.8)"/><path class="cls-2" d="M1303.6,635c-.9-25.1-1.9-55.5-1.9-85.9h-.9c-6.5,26.7-15.2,56.4-23.2,80.9l-25.5,81.6h-36.9l-22.3-80.9c-6.8-24.5-14-54.3-18.9-81.6h-.6c-1.3,28.2-2.2,60.5-3.8,86.5l-3.7,79.4h-43.7l13.3-209h63l20.4,69.8c6.6,24.2,13.1,50.2,17.7,74.7h1c5.8-24.2,13-51.8,19.8-75l22.3-69.5h61.7l11.5,209h-46.2Z" transform="translate(-122.5 -416.8)"/><path class="cls-2" d="M1389.2,715V506h55.2l43.4,76.6a609.4,609.4,0,0,1,34.1,71.6h.9c-3.1-27.6-4-55.8-4-87.1V506h43.4V715h-49.6l-44.7-80.6c-12.4-22.4-26-49.3-36.3-73.8l-.9.3c1.3,27.6,1.9,57,1.9,91.2V715Z" transform="translate(-122.5 -416.8)"/><path class="cls-2" d="M1650.5,506V715h-47.4V506Z" transform="translate(-122.5 -416.8)"/><path class="cls-2" d="M1645.6,421.3a30.2,30.2,0,1,0,6.8,45.7l40.3,25a5.4,5.4,0,0,0,7.4-1.7h0a5.3,5.3,0,0,0-1.7-7.3l-40.5-25.2A30.3,30.3,0,0,0,1645.6,421.3Zm.8,36.1a19.7,19.7,0,1,1-6.4-27.1A19.8,19.8,0,0,1,1646.4,457.4Z" transform="translate(-122.5 -416.8)"/></svg>